HIERARCHY
ROOT hip
{
  OFFSET 0 90.174 2.4664
  CHANNELS 6 Xposition Yposition Zposition Zrotation Xrotation Yrotation
  JOINT abdomen
  {
    OFFSET 0 -1.186 -1.5018
    CHANNELS 6 Xposition Yposition Zposition Zrotation Xrotation Yrotation
    JOINT abdomen2
    {
      OFFSET 0 9.964 0.2134
      CHANNELS 6 Xposition Yposition Zposition Zrotation Xrotation Yrotation
      JOINT chest
      {
        OFFSET 0 13.134 -3.2573
        CHANNELS 6 Xposition Yposition Zposition Zrotation Xrotation Yrotation
        JOINT neck
        {
          OFFSET 0 20.686 -1.6905
          CHANNELS 6 Xposition Yposition Zposition Zrotation Xrotation Yrotation
          JOINT head
          {
            OFFSET 0 7.238 -0.1237
            CHANNELS 6 Xposition Yposition Zposition Zrotation Xrotation Yrotation
            End Site
            {
              OFFSET 0 0 0
            }
          }
        }
        JOINT lCollar
        {
          OFFSET 1.7069 20.075 5.0056
          CHANNELS 6 Xposition Yposition Zposition Zrotation Xrotation Yrotation
          JOINT lShldr
          {
            OFFSET 13.6458 -0.047 -4.849
            CHANNELS 6 Xposition Yposition Zposition Zrotation Xrotation Yrotation
            JOINT lForeArm
            {
              OFFSET 28.3255 -0.9759 2.2888
              CHANNELS 6 Xposition Yposition Zposition Zrotation Xrotation Yrotation
              JOINT lHand
              {
                OFFSET 22.1583 -0.53 10.8316
                CHANNELS 6 Xposition Yposition Zposition Zrotation Xrotation Yrotation
                JOINT lThumb1
                {
                  OFFSET 0.786 0.112 2.5817
                  CHANNELS 6 Xposition Yposition Zposition Zrotation Xrotation Yrotation
                  JOINT lThumb2
                  {
                    OFFSET 0.3601 -0.878 4.2331
                    CHANNELS 6 Xposition Yposition Zposition Zrotation Xrotation Yrotation
                    JOINT lThumb2_End
                    {
                      OFFSET 1.8127 -1.216 2.2227
                      CHANNELS 6 Xposition Yposition Zposition Zrotation Xrotation Yrotation
                      End Site
                      {
                        OFFSET 0.0181 -0.0122 0.0222
                      }
                    }
                  }
                }
                JOINT lCarpal1
                {
                  OFFSET 0.9571 1.114 1.7695
                  CHANNELS 6 Xposition Yposition Zposition Zrotation Xrotation Yrotation
                  JOINT lIndex1
                  {
                    OFFSET 4.1246 0.487 4.1451
                    CHANNELS 6 Xposition Yposition Zposition Zrotation Xrotation Yrotation
                    JOINT lIndex2
                    {
                      OFFSET 3.4052 -1.454 2.7682
                      CHANNELS 6 Xposition Yposition Zposition Zrotation Xrotation Yrotation
                      JOINT lIndex2_End
                      {
                        OFFSET 1.4531 -1.795 1.2713
                        CHANNELS 6 Xposition Yposition Zposition Zrotation Xrotation Yrotation
                        End Site
                        {
                          OFFSET 0.0145 -0.0179 0.0127
                        }
                      }
                    }
                  }
                  JOINT lMid1
                  {
                    OFFSET 5.6954 0.21 2.1184
                    CHANNELS 6 Xposition Yposition Zposition Zrotation Xrotation Yrotation
                    JOINT lMid2
                    {
                      OFFSET 3.9766 -1.54 2.3863
                      CHANNELS 6 Xposition Yposition Zposition Zrotation Xrotation Yrotation
                      JOINT lMid2_End
                      {
                        OFFSET 1.4042 -1.926 1.125
                        CHANNELS 6 Xposition Yposition Zposition Zrotation Xrotation Yrotation
                        End Site
                        {
                          OFFSET 0.014 -0.0193 0.0113
                        }
                      }
                    }
                  }
                }
                JOINT lCarpal2
                {
                  OFFSET 2.0956 0.66 -0.3894
                  CHANNELS 6 Xposition Yposition Zposition Zrotation Xrotation Yrotation
                  JOINT lRing1
                  {
                    OFFSET 5.0395 -0.09 2.4971
                    CHANNELS 6 Xposition Yposition Zposition Zrotation Xrotation Yrotation
                    JOINT lRing2
                    {
                      OFFSET 3.7921 -1.552 1.4806
                      CHANNELS 6 Xposition Yposition Zposition Zrotation Xrotation Yrotation
                      JOINT lRing2_End
                      {
                        OFFSET 1.4655 -1.808 0.9609
                        CHANNELS 6 Xposition Yposition Zposition Zrotation Xrotation Yrotation
                        End Site
                        {
                          OFFSET 0.0147 -0.0181 0.0096
                        }
                      }
                    }
                  }
                  JOINT lPinky1
                  {
                    OFFSET 4.9141 -1.269 0.3591
                    CHANNELS 6 Xposition Yposition Zposition Zrotation Xrotation Yrotation
                    JOINT lPinky2
                    {
                      OFFSET 3.1477 -1.685 0.8462
                      CHANNELS 6 Xposition Yposition Zposition Zrotation Xrotation Yrotation
                      JOINT lPinky2_End
                      {
                        OFFSET 0.8055 -1.585 0.7955
                        CHANNELS 6 Xposition Yposition Zposition Zrotation Xrotation Yrotation
                        End Site
                        {
                          OFFSET 0.0081 -0.0158 0.008
                        }
                      }
                    }
                  }
                }
              }
            }
          }
        }
        JOINT rCollar
        {
          OFFSET -1.7069 20.075 5.0056
          CHANNELS 6 Xposition Yposition Zposition Zrotation Xrotation Yrotation
          JOINT rShldr
          {
            OFFSET -13.6458 -0.047 -4.849
            CHANNELS 6 Xposition Yposition Zposition Zrotation Xrotation Yrotation
            JOINT rForeArm
            {
              OFFSET -28.3255 -0.9759 2.2888
              CHANNELS 6 Xposition Yposition Zposition Zrotation Xrotation Yrotation
              JOINT rHand
              {
                OFFSET -22.1583 -0.53 10.8316
                CHANNELS 6 Xposition Yposition Zposition Zrotation Xrotation Yrotation
                JOINT rThumb1
                {
                  OFFSET -0.786 0.112 2.5817
                  CHANNELS 6 Xposition Yposition Zposition Zrotation Xrotation Yrotation
                  JOINT rThumb2
                  {
                    OFFSET -0.3601 -0.878 4.2331
                    CHANNELS 6 Xposition Yposition Zposition Zrotation Xrotation Yrotation
                    JOINT rThumb2_End
                    {
                      OFFSET -1.8127 -1.216 2.2227
                      CHANNELS 6 Xposition Yposition Zposition Zrotation Xrotation Yrotation
                      End Site
                      {
                        OFFSET -0.0181 -0.0122 0.0222
                      }
                    }
                  }
                }
                JOINT rCarpal1
                {
                  OFFSET -0.9571 1.114 1.7695
                  CHANNELS 6 Xposition Yposition Zposition Zrotation Xrotation Yrotation
                  JOINT rIndex1
                  {
                    OFFSET -4.1246 0.487 4.1451
                    CHANNELS 6 Xposition Yposition Zposition Zrotation Xrotation Yrotation
                    JOINT rIndex2
                    {
                      OFFSET -3.4052 -1.454 2.7682
                      CHANNELS 6 Xposition Yposition Zposition Zrotation Xrotation Yrotation
                      JOINT rIndex2_End
                      {
                        OFFSET -1.4531 -1.795 1.2713
                        CHANNELS 6 Xposition Yposition Zposition Zrotation Xrotation Yrotation
                        End Site
                        {
                          OFFSET -0.0145 -0.018 0.0127
                        }
                      }
                    }
                  }
                  JOINT rMid1
                  {
                    OFFSET -5.6954 0.21 2.1184
                    CHANNELS 6 Xposition Yposition Zposition Zrotation Xrotation Yrotation
                    JOINT rMid2
                    {
                      OFFSET -3.9766 -1.54 2.3863
                      CHANNELS 6 Xposition Yposition Zposition Zrotation Xrotation Yrotation
                      JOINT rMid2_End
                      {
                        OFFSET -1.4042 -1.926 1.125
                        CHANNELS 6 Xposition Yposition Zposition Zrotation Xrotation Yrotation
                        End Site
                        {
                          OFFSET -0.014 -0.0193 0.0113
                        }
                      }
                    }
                  }
                }
                JOINT rCarpal2
                {
                  OFFSET -2.0956 0.66 -0.3894
                  CHANNELS 6 Xposition Yposition Zposition Zrotation Xrotation Yrotation
                  JOINT rRing1
                  {
                    OFFSET -5.0395 -0.09 2.4971
                    CHANNELS 6 Xposition Yposition Zposition Zrotation Xrotation Yrotation
                    JOINT rRing2
                    {
                      OFFSET -3.7921 -1.552 1.4806
                      CHANNELS 6 Xposition Yposition Zposition Zrotation Xrotation Yrotation
                      JOINT rRing2_End
                      {
                        OFFSET -1.4655 -1.808 0.9609
                        CHANNELS 6 Xposition Yposition Zposition Zrotation Xrotation Yrotation
                        End Site
                        {
                          OFFSET -0.0147 -0.0181 0.0096
                        }
                      }
                    }
                  }
                  JOINT rPinky1
                  {
                    OFFSET -4.9141 -1.269 0.3592
                    CHANNELS 6 Xposition Yposition Zposition Zrotation Xrotation Yrotation
                    JOINT rPinky2
                    {
                      OFFSET -3.1477 -1.685 0.8462
                      CHANNELS 6 Xposition Yposition Zposition Zrotation Xrotation Yrotation
                      JOINT rPinky2_End
                      {
                        OFFSET -0.8055 -1.585 0.7955
                        CHANNELS 6 Xposition Yposition Zposition Zrotation Xrotation Yrotation
                        End Site
                        {
                          OFFSET -0.0081 -0.0158 0.008
                        }
                      }
                    }
                  }
                }
              }
            }
          }
        }
      }
    }
  }
  JOINT lThigh
  {
    OFFSET 8.367 -8.2066 0.5982
    CHANNELS 6 Xposition Yposition Zposition Zrotation Xrotation Yrotation
    JOINT lShin
    {
      OFFSET 2.1923 -43.463 -0.4932
      CHANNELS 6 Xposition Yposition Zposition Zrotation Xrotation Yrotation
      JOINT lFoot
      {
        OFFSET 0.7333 -45.8593 -2.6451
        CHANNELS 6 Xposition Yposition Zposition Zrotation Xrotation Yrotation
        End Site
        {
          OFFSET 2.6618 -4.2699 12.3931
        }
      }
    }
  }
  JOINT rThigh
  {
    OFFSET -8.367 -8.2066 0.5982
    CHANNELS 6 Xposition Yposition Zposition Zrotation Xrotation Yrotation
    JOINT rShin
    {
      OFFSET -2.1923 -43.463 -0.4931
      CHANNELS 6 Xposition Yposition Zposition Zrotation Xrotation Yrotation
      JOINT rFoot
      {
        OFFSET -0.7333 -45.8593 -2.6451
        CHANNELS 6 Xposition Yposition Zposition Zrotation Xrotation Yrotation
        End Site
        {
          OFFSET -2.6618 -4.2699 12.3931
        }
      }
    }
  }
}
MOTION
Frames:	4
Frame Time:	0.0333333
0 90.174 2.4664 0 0 -0 0 -1.186 -1.5018 0 0 -0 0 9.964 0.2134 0 0 -0 0 13.134 -3.2573 0 0 -0 0 20.686 -1.6905 0 0 -0 0 7.238 -0.1237 0 0 -0 1.7069 20.075 5.0056 0 0 -0 13.6458 -0.047 -4.849 1.66051 0.0835086 5.75766 28.3255 -0.9759 2.2888 -0.0175111 0.895433 15.7816 22.1583 -0.53 10.8316 7.95139e-016 -1.98785e-016 -0 0.786 0.112 2.5817 5.46658e-016 -3.97569e-016 -0 0.3601 -0.878 4.2331 5.96354e-016 0 -0 1.8127 -1.216 2.2227 3.97569e-016 1.98785e-016 9.54166e-015 0.9571 1.114 1.7695 1.49089e-016 -3.97569e-016 -0 4.1246 0.487 4.1451 6.4605e-016 0 3.18055e-015 3.4052 -1.454 2.7682 5.96354e-016 0 3.18055e-015 1.4531 -1.795 1.2713 8.94531e-016 -1.98785e-016 6.36111e-015 5.6954 0.21 2.1184 6.4605e-016 0 3.18055e-015 3.9766 -1.54 2.3863 5.96354e-016 0 3.18055e-015 1.4042 -1.926 1.125 8.94531e-016 -1.98785e-016 6.36111e-015 2.0956 0.66 -0.3894 1.49089e-016 -3.97569e-016 -0 5.0395 -0.09 2.4971 6.4605e-016 0 3.18055e-015 3.7921 -1.552 1.4806 5.96354e-016 0 3.18055e-015 1.4655 -1.808 0.9609 8.94531e-016 -1.98785e-016 6.36111e-015 4.9141 -1.269 0.3591 6.4605e-016 0 3.18055e-015 3.1477 -1.685 0.8462 5.96354e-016 0 3.18055e-015 0.8055 -1.585 0.7955 8.94531e-016 -1.98785e-016 6.36111e-015 -1.7069 20.075 5.0056 0 0 -0 -13.6458 -0.047 -4.849 -1.4496 0.0636048 -5.0245 -28.3255 -0.9759 2.2888 -1.74811 1.20616 -16.8394 -22.1583 -0.53 10.8316 -1.19271e-015 1.98785e-016 -3.18055e-015 -0.786 0.112 2.5817 -3.97569e-016 1.98785e-016 -3.18055e-015 -0.3601 -0.878 4.2331 -2.98177e-016 1.98785e-016 -3.18055e-015 -1.8127 -1.216 2.2227 -2.98177e-016 3.97569e-016 -0 -0.9571 1.114 1.7695 4.96962e-016 0 -6.36111e-015 -4.1246 0.487 4.1451 -9.93923e-017 3.97569e-016 -0 -3.4052 -1.454 2.7682 -8.94531e-016 5.96354e-016 -0 -1.4531 -1.795 1.2713 -3.97569e-016 3.97569e-016 -0 -5.6954 0.21 2.1184 -9.93923e-017 3.97569e-016 -0 -3.9766 -1.54 2.3863 -8.94531e-016 5.96354e-016 -0 -1.4042 -1.926 1.125 -3.97569e-016 3.97569e-016 -0 -2.0956 0.66 -0.3894 4.96962e-016 0 -6.36111e-015 -5.0395 -0.09 2.4971 -9.93923e-017 3.97569e-016 -0 -3.7921 -1.552 1.4806 -8.94531e-016 5.96354e-016 -0 -1.4655 -1.808 0.9609 -3.97569e-016 3.97569e-016 -0 -4.9141 -1.269 0.3592 -9.93923e-017 3.97569e-016 -0 -3.1477 -1.685 0.8462 -8.94531e-016 5.96354e-016 -0 -0.8055 -1.585 0.7955 -3.97569e-016 3.97569e-016 -0 8.367 -8.2066 0.5982 -4.66115 -1.03232 0.120763 2.1923 -43.463 -0.4932 0.00990601 1.55097 0.177175 0.7333 -45.8593 -2.6451 4.65196 -0.54114 -0.255042 -8.367 -8.2066 0.5982 4.66115 -1.03222 -0.120763 -2.1923 -43.463 -0.4931 -0.00990459 1.5509 -0.177176 -0.7333 -45.8593 -2.6451 -4.65196 -0.541171 0.255041 
-0.0172359 24.8272 -4.32711 159.862 -64.9387 -0.366282 1.77636e-015 -1.186 -1.5018 -0.0203006 -10.9382 -0.671859 0 9.964 0.2134 -0.179179 -21.8755 -1.38683 0 13.134 -3.2573 -0.179177 -21.8755 -1.38683 8.88178e-016 20.686 -1.6905 0.0764908 0.212304 0.0949932 8.88178e-016 7.238 -0.1237 -1.75729e-006 0.167373 9.83816e-007 1.7069 20.075 5.0056 9.55372 42.6855 1.80852 13.6458 -0.047 -4.849 45.609 0.228657 -36.9803 28.3255 -0.9759 2.2888 26.1791 -24.3884 -25.8846 22.1583 -0.53 10.8316 68.9878 -7.98759 61.817 0.786 0.112 2.5817 1.06653e-006 -1.2946e-006 2.94459e-007 0.3601 -0.878 4.2331 -2.38542e-015 6.75868e-015 -0 1.8127 -1.216 2.2227 -2.28065e-007 -2.36113e-006 1.69791e-007 0.9571 1.114 1.7695 -7.95139e-016 7.95139e-016 1.59028e-015 4.1246 0.487 4.1451 1.06653e-006 -1.2946e-006 2.94459e-007 3.4052 -1.454 2.7682 -3.18055e-015 2.78299e-015 -0 1.4531 -1.795 1.2713 -2.28065e-007 -2.36113e-006 1.69791e-007 5.6954 0.21 2.1184 1.06653e-006 -1.2946e-006 2.94459e-007 3.9766 -1.54 2.3863 -3.18055e-015 2.78299e-015 -0 1.4042 -1.926 1.125 -2.28065e-007 -2.36113e-006 1.69791e-007 2.0956 0.66 -0.3894 -7.95139e-016 7.95139e-016 1.59028e-015 5.0395 -0.09 2.4971 1.06653e-006 -1.2946e-006 2.94459e-007 3.7921 -1.552 1.4806 -3.18055e-015 2.78299e-015 -0 1.4655 -1.808 0.9609 -2.28065e-007 -2.36113e-006 1.69791e-007 4.9141 -1.269 0.3591 1.06653e-006 -1.2946e-006 2.94459e-007 3.1477 -1.685 0.8462 -3.18055e-015 2.78299e-015 -0 0.8055 -1.585 0.7955 -2.28065e-007 -2.36113e-006 1.69791e-007 -1.7069 20.075 5.0056 42.5896 8.48464 -16.8536 -13.6458 -0.047 -4.849 -36.1981 15.419 47.6628 -28.3255 -0.9759 2.2888 -24.3765 -22.8025 24.7335 -22.1583 -0.53 10.8316 -47.5158 -15.1973 3.31953 -0.786 0.112 2.5817 2.35337e-006 2.91472e-007 -3.70865e-007 -0.3601 -0.878 4.2331 1.11319e-014 -2.38542e-015 -1.59028e-014 -1.8127 -1.216 2.2227 1.43125e-014 1.23246e-014 -1.59028e-014 -0.9571 1.114 1.7695 -1.59028e-015 -3.97569e-016 -0 -4.1246 0.487 4.1451 2.35337e-006 2.91472e-007 -3.70865e-007 -3.4052 -1.454 2.7682 1.43125e-014 7.95139e-016 -1.59028e-014 -1.4531 -1.795 1.2713 1.43125e-014 6.36111e-015 -1.59028e-014 -5.6954 0.21 2.1184 2.35337e-006 2.91472e-007 -3.70865e-007 -3.9766 -1.54 2.3863 1.43125e-014 7.95139e-016 -1.59028e-014 -1.4042 -1.926 1.125 1.43125e-014 6.36111e-015 -1.59028e-014 -2.0956 0.66 -0.3894 -1.59028e-015 -3.97569e-016 -0 -5.0395 -0.09 2.4971 2.35337e-006 2.91472e-007 -3.70865e-007 -3.7921 -1.552 1.4806 1.43125e-014 7.95139e-016 -1.59028e-014 -1.4655 -1.808 0.9609 1.43125e-014 6.36111e-015 -1.59028e-014 -4.9141 -1.269 0.3592 2.35337e-006 2.91472e-007 -3.70865e-007 -3.1477 -1.685 0.8462 1.43125e-014 7.95139e-016 -1.59028e-014 -0.8055 -1.585 0.7955 1.43125e-014 6.36111e-015 -1.59028e-014 8.367 -8.2066 0.5982 89.1738 -43.6014 98.1624 2.1923 -43.463 -0.4932 -24.5348 72.675 24.2221 0.7333 -45.8593 -2.6451 9.32557 52.3994 -10.8591 -8.367 -8.2066 0.5982 -89.8624 -44.6696 -99.6284 -2.1923 -43.463 -0.4931 24.6903 72.8885 -25.3045 -0.7333 -45.8593 -2.6451 -10.6253 52.3638 10.963 
0.873418 17.8739 -3.84739 -174.346 -76.9758 -0.784499 4.44089e-016 -1.186 -1.5018 -0.051822 -12.2084 -0.785992 4.44089e-016 9.964 0.2134 -0.289964 -24.4148 -1.64168 4.44089e-016 13.134 -3.2573 -0.289969 -24.4148 -1.64168 -4.44089e-016 20.686 -1.6905 0.0880948 -0.0284976 0.109646 -1.77636e-015 7.238 -0.1237 2.01167e-007 -0.150677 6.28762e-007 1.7069 20.075 5.0056 9.91875 48.8611 3.65266 13.6458 -0.047 -4.849 53.0285 -0.114184 -43.9379 28.3255 -0.9759 2.2888 28.0666 -26.0424 -34.1803 22.1583 -0.53 10.8316 78.4911 -8.89411 73.2053 0.786 0.112 2.5817 3.25526e-031 -1.17283e-014 1.59028e-015 0.3601 -0.878 4.2331 8.41917e-007 2.90786e-007 8.81882e-007 1.8127 -1.216 2.2227 1.59028e-015 -4.17448e-015 -0 0.9571 1.114 1.7695 1.59028e-015 -5.36719e-015 -0 4.1246 0.487 4.1451 -6.36111e-015 -1.78906e-015 4.77083e-015 3.4052 -1.454 2.7682 8.41917e-007 2.90786e-007 8.81882e-007 1.4531 -1.795 1.2713 -3.18055e-015 4.37326e-015 -3.18055e-015 5.6954 0.21 2.1184 -6.36111e-015 -1.78906e-015 4.77083e-015 3.9766 -1.54 2.3863 8.41917e-007 2.90786e-007 8.81882e-007 1.4042 -1.926 1.125 -3.18055e-015 4.37326e-015 -3.18055e-015 2.0956 0.66 -0.3894 1.59028e-015 -5.36719e-015 -0 5.0395 -0.09 2.4971 -6.36111e-015 -1.78906e-015 4.77083e-015 3.7921 -1.552 1.4806 8.41917e-007 2.90786e-007 8.81882e-007 1.4655 -1.808 0.9609 -3.18055e-015 4.37326e-015 -3.18055e-015 4.9141 -1.269 0.3591 -6.36111e-015 -1.78906e-015 4.77083e-015 3.1477 -1.685 0.8462 8.41917e-007 2.90786e-007 8.81882e-007 0.8055 -1.585 0.7955 -3.18055e-015 4.37326e-015 -3.18055e-015 -1.7069 20.075 5.0056 49.782 9.21382 -19.7403 -13.6458 -0.047 -4.849 -44.4084 14.2063 56.4734 -28.3255 -0.9759 2.2888 -25.6519 -24.3117 32.9409 -22.1583 -0.53 10.8316 -56.1699 -16.6618 2.13424 -0.786 0.112 2.5817 -3.18055e-015 1.05356e-014 3.18055e-015 -0.3601 -0.878 4.2331 3.123e-007 -2.82462e-007 -6.74765e-008 -1.8127 -1.216 2.2227 3.18055e-015 -8.15017e-015 -0 -0.9571 1.114 1.7695 5.51738e-033 -3.97569e-016 7.95139e-016 -4.1246 0.487 4.1451 -3.18055e-015 2.22639e-014 5.56597e-015 -3.4052 -1.454 2.7682 3.123e-007 -2.82462e-007 -6.74765e-008 -1.4531 -1.795 1.2713 -4.13804e-031 -9.93923e-015 -2.38542e-015 -5.6954 0.21 2.1184 -3.18055e-015 2.22639e-014 5.56597e-015 -3.9766 -1.54 2.3863 3.123e-007 -2.82462e-007 -6.74765e-008 -1.4042 -1.926 1.125 -4.13804e-031 -9.93923e-015 -2.38542e-015 -2.0956 0.66 -0.3894 5.51738e-033 -3.97569e-016 7.95139e-016 -5.0395 -0.09 2.4971 -3.18055e-015 2.22639e-014 5.56597e-015 -3.7921 -1.552 1.4806 3.123e-007 -2.82462e-007 -6.74765e-008 -1.4655 -1.808 0.9609 -4.13804e-031 -9.93923e-015 -2.38542e-015 -4.9141 -1.269 0.3592 -3.18055e-015 2.22639e-014 5.56597e-015 -3.1477 -1.685 0.8462 3.123e-007 -2.82462e-007 -6.74765e-008 -0.8055 -1.585 0.7955 -4.13804e-031 -9.93923e-015 -2.38542e-015 8.367 -8.2066 0.5982 105.13 -33.7566 107.485 2.1923 -43.463 -0.4932 -73.6187 82.4558 73.718 0.7333 -45.8593 -2.6451 16.2987 59.4187 -16.7932 -8.367 -8.2066 0.5982 -104.982 -33.381 -106.968 -2.1923 -43.463 -0.4931 72.9029 82.4054 -72.6119 -0.7333 -45.8593 -2.6451 -15.888 59.5623 16.809 
0.817172 19.5418 -4.23262 179.109 -76.0407 -0.685473 0 -1.186 -1.5018 -0.056543 -11.1053 -0.756476 0 9.964 0.2134 -0.273847 -22.2089 -1.57004 -2.22045e-016 13.134 -3.2573 -0.273847 -22.2089 -1.57004 4.44089e-016 20.686 -1.6905 0.0841233 -0.379151 0.104578 4.44089e-016 7.238 -0.1237 -4.00095e-007 -0.588139 -2.83739e-007 1.7069 20.075 5.0056 8.81522 46.0811 4.92802 13.6458 -0.047 -4.849 51.3566 -0.380623 -42.1208 28.3255 -0.9759 2.2888 28.2013 -26.5064 -32.9553 22.1583 -0.53 10.8316 76.0923 -8.64921 70.3135 0.786 0.112 2.5817 3.18055e-015 -5.56597e-015 -0 0.3601 -0.878 4.2331 1.93108e-031 -6.95746e-015 1.59028e-015 1.8127 -1.216 2.2227 -0 -8.54774e-015 -0 0.9571 1.114 1.7695 1.59028e-015 -1.98785e-016 -0 4.1246 0.487 4.1451 -4.77083e-015 -2.60408e-014 3.18055e-015 3.4052 -1.454 2.7682 8.82781e-032 -3.18055e-015 1.59028e-015 1.4531 -1.795 1.2713 1.59028e-015 -6.75868e-015 -0 5.6954 0.21 2.1184 -4.77083e-015 -2.60408e-014 3.18055e-015 3.9766 -1.54 2.3863 8.82781e-032 -3.18055e-015 1.59028e-015 1.4042 -1.926 1.125 1.59028e-015 -6.75868e-015 -0 2.0956 0.66 -0.3894 1.59028e-015 -1.98785e-016 -0 5.0395 -0.09 2.4971 -4.77083e-015 -2.60408e-014 3.18055e-015 3.7921 -1.552 1.4806 8.82781e-032 -3.18055e-015 1.59028e-015 1.4655 -1.808 0.9609 1.59028e-015 -6.75868e-015 -0 4.9141 -1.269 0.3591 -4.77083e-015 -2.60408e-014 3.18055e-015 3.1477 -1.685 0.8462 8.82781e-032 -3.18055e-015 1.59028e-015 0.8055 -1.585 0.7955 1.59028e-015 -6.75868e-015 -0 -1.7069 20.075 5.0056 47.574 8.27392 -19.0955 -13.6458 -0.047 -4.849 -42.475 14.2975 54.4294 -28.3255 -0.9759 2.2888 -25.762 -24.606 31.6715 -22.1583 -0.53 10.8316 -54.5301 -16.1081 1.7195 -0.786 0.112 2.5817 3.23017e-007 -2.73532e-007 -5.52294e-008 -0.3601 -0.878 4.2331 -1.59028e-015 -6.95746e-015 -3.18055e-015 -1.8127 -1.216 2.2227 3.23017e-007 -2.73532e-007 -5.52294e-008 -0.9571 1.114 1.7695 -3.31043e-032 -1.19271e-015 -1.59028e-015 -4.1246 0.487 4.1451 3.23017e-007 -2.73532e-007 -5.52294e-008 -3.4052 -1.454 2.7682 -3.18055e-015 -7.15625e-015 -0 -1.4531 -1.795 1.2713 3.23017e-007 -2.73532e-007 -5.52294e-008 -5.6954 0.21 2.1184 3.23017e-007 -2.73532e-007 -5.52294e-008 -3.9766 -1.54 2.3863 -3.18055e-015 -7.15625e-015 -0 -1.4042 -1.926 1.125 3.23017e-007 -2.73532e-007 -5.52294e-008 -2.0956 0.66 -0.3894 -3.31043e-032 -1.19271e-015 -1.59028e-015 -5.0395 -0.09 2.4971 3.23017e-007 -2.73532e-007 -5.52294e-008 -3.7921 -1.552 1.4806 -3.18055e-015 -7.15625e-015 -0 -1.4655 -1.808 0.9609 3.23017e-007 -2.73532e-007 -5.52294e-008 -4.9141 -1.269 0.3592 3.23017e-007 -2.73532e-007 -5.52294e-008 -3.1477 -1.685 0.8462 -3.18055e-015 -7.15625e-015 -0 -0.8055 -1.585 0.7955 3.23017e-007 -2.73532e-007 -5.52294e-008 8.367 -8.2066 0.5982 98.9056 -35.6696 103.375 2.1923 -43.463 -0.4932 -53.1624 80.8871 53.0476 0.7333 -45.8593 -2.6451 16.637 57.1403 -17.1238 -8.367 -8.2066 0.5982 -98.9109 -35.6754 -103.397 -2.1923 -43.463 -0.4931 53.1684 80.8889 -53.0715 -0.7333 -45.8593 -2.6451 -16.6583 57.1355 17.1232 
